<svg width="193" height="40" viewBox="0 0 193 40" fill="none" xmlns="http://www.w3.org/2000/svg">
<g clip-path="url(#clip0_2911_90)">
<path d="M41.9412 20C41.9412 8.9543 32.9869 0 21.9412 0C10.8955 0 1.94116 8.9543 1.94116 20C1.94116 31.0457 10.8955 40 21.9412 40C32.9869 40 41.9412 31.0457 41.9412 20Z" fill="url(#paint0_linear_2911_90)"/>
<path d="M41.9412 20C41.9412 8.9543 32.9869 0 21.9412 0C10.8955 0 1.94116 8.9543 1.94116 20C1.94116 31.0457 10.8955 40 21.9412 40C32.9869 40 41.9412 31.0457 41.9412 20Z" fill="url(#paint1_linear_2911_90)" fill-opacity="0.56"/>
<path d="M22.2595 7.5C25.4266 7.5 28.4164 8.67012 30.73 10.8034C30.8583 10.9217 30.8596 11.1226 30.7363 11.2459L25.8391 16.1431C25.7205 16.2618 25.5299 16.2647 25.4002 16.1583C24.5157 15.4342 23.4183 15.041 22.2615 15.041C19.5232 15.0391 17.2966 17.2657 17.2966 20H9.75366C9.75366 13.1074 15.3649 7.5 22.2595 7.5Z" fill="white"/>
<path d="M17.2966 20C17.2966 22.5663 19.2575 24.6846 21.7606 24.936C21.9275 24.9528 22.0603 25.0896 22.0603 25.2573V32.1826C22.0603 32.357 21.9165 32.4981 21.7421 32.491C15.0849 32.2182 9.75366 26.7194 9.75366 20H17.2966Z" fill="white"/>
<path opacity="0.56" d="M29.691 20.9921H26.7418C26.5691 20.9921 26.4292 21.1321 26.4292 21.3047V24.2519C26.4292 24.4246 26.5691 24.5644 26.7418 24.5644H29.691C29.8635 24.5644 30.0034 24.4246 30.0034 24.2519V21.3047C30.0034 21.1321 29.8635 20.9921 29.691 20.9921Z" fill="white"/>
<path opacity="0.4" d="M33.6594 20.9921H30.7101C30.5376 20.9921 30.3977 21.1321 30.3977 21.3047V24.2519C30.3977 24.4246 30.5376 24.5644 30.7101 24.5644H33.6594C33.8319 24.5644 33.9719 24.4246 33.9719 24.2519V21.3047C33.9719 21.1321 33.8319 20.9921 33.6594 20.9921Z" fill="white"/>
<path opacity="0.72" d="M29.691 24.9611H26.7418C26.5691 24.9611 26.4292 25.101 26.4292 25.2736V28.2209C26.4292 28.3934 26.5691 28.5333 26.7418 28.5333H29.691C29.8635 28.5333 30.0034 28.3934 30.0034 28.2209V25.2736C30.0034 25.101 29.8635 24.9611 29.691 24.9611Z" fill="white"/>
<path opacity="0.88" d="M25.7209 24.9611H22.7717C22.5991 24.9611 22.4592 25.101 22.4592 25.2736V28.2209C22.4592 28.3934 22.5991 28.5333 22.7717 28.5333H25.7209C25.8936 28.5333 26.0335 28.3934 26.0335 28.2209V25.2736C26.0335 25.101 25.8936 24.9611 25.7209 24.9611Z" fill="white"/>
<path opacity="0.56" d="M33.6594 24.9611H30.7101C30.5376 24.9611 30.3977 25.101 30.3977 25.2736V28.2209C30.3977 28.3934 30.5376 28.5333 30.7101 28.5333H33.6594C33.8319 28.5333 33.9719 28.3934 33.9719 28.2209V25.2736C33.9719 25.101 33.8319 24.9611 33.6594 24.9611Z" fill="white"/>
<path opacity="0.88" d="M29.691 28.9276H26.7418C26.5691 28.9276 26.4292 29.0674 26.4292 29.24V32.1873C26.4292 32.3599 26.5691 32.4998 26.7418 32.4998H29.691C29.8635 32.4998 30.0034 32.3599 30.0034 32.1873V29.24C30.0034 29.0674 29.8635 28.9276 29.691 28.9276Z" fill="white"/>
<path opacity="0.96" d="M25.7209 28.9276H22.7717C22.5991 28.9276 22.4592 29.0674 22.4592 29.24V32.1873C22.4592 32.3599 22.5991 32.4998 22.7717 32.4998H25.7209C25.8936 32.4998 26.0335 32.3599 26.0335 32.1873V29.24C26.0335 29.0674 25.8936 28.9276 25.7209 28.9276Z" fill="white"/>
<path opacity="0.72" d="M33.6594 28.9276H30.7101C30.5376 28.9276 30.3977 29.0674 30.3977 29.24V32.1873C30.3977 32.3599 30.5376 32.4998 30.7101 32.4998H33.6594C33.8319 32.4998 33.9719 32.3599 33.9719 32.1873V29.24C33.9719 29.0674 33.8319 28.9276 33.6594 28.9276Z" fill="white"/>
<path d="M65.2099 11.25H68.3599V29.31C68.3599 30.465 68.0912 31.5383 67.5536 32.53C67.0286 33.5333 66.3162 34.4024 65.4162 35.1376C64.5162 35.8841 63.4912 36.4617 62.3412 36.87C61.1912 37.29 59.9912 37.5 58.7412 37.5C57.4412 37.5 56.1849 37.2259 54.9724 36.6776C53.7599 36.1409 52.6974 35.4174 51.7849 34.5074C50.8849 33.6091 50.2349 32.6 49.8349 31.48L52.7224 30.255C52.9599 31.06 53.3849 31.7833 53.9974 32.425C54.6224 33.0783 55.3474 33.5917 56.1724 33.965C57.0099 34.35 57.8662 34.5424 58.7412 34.5424C59.5662 34.5424 60.3599 34.4083 61.1224 34.14C61.8974 33.8717 62.5912 33.4983 63.2036 33.02C63.8286 32.5533 64.3162 31.9992 64.6662 31.3576C65.0286 30.7276 65.2099 30.045 65.2099 29.31V25.8274C64.5724 26.8308 63.7286 27.6474 62.6786 28.2774C61.6412 28.8959 60.4286 29.205 59.0412 29.205C57.7162 29.205 56.4724 28.9659 55.3099 28.4876C54.1474 28.0092 53.1286 27.35 52.2536 26.51C51.3786 25.6583 50.6912 24.6783 50.1912 23.57C49.6912 22.4617 49.4412 21.2717 49.4412 20C49.4412 18.7283 49.6912 17.5383 50.1912 16.43C50.6912 15.31 51.3786 14.33 52.2536 13.49C53.1286 12.6383 54.1474 11.9733 55.3099 11.495C56.4724 11.0167 57.7162 10.7775 59.0412 10.7775C60.4286 10.7775 61.6412 11.0867 62.6786 11.705C63.7286 12.3233 64.5724 13.14 65.2099 14.155V11.25ZM59.0599 26.3526C60.2724 26.3526 61.3224 26.0609 62.2099 25.4776C63.1099 24.8942 63.8036 24.1183 64.2912 23.15C64.7786 22.1817 65.0224 21.1317 65.0224 20C65.0224 18.8333 64.7724 17.7717 64.2724 16.815C63.7849 15.8467 63.0912 15.0767 62.1912 14.505C61.3036 13.9217 60.2599 13.63 59.0599 13.63C57.8849 13.63 56.8099 13.9159 55.8349 14.4876C54.8599 15.0592 54.0849 15.8292 53.5099 16.7976C52.9474 17.7542 52.6662 18.8217 52.6662 20C52.6662 21.1783 52.9536 22.2517 53.5287 23.22C54.1162 24.1767 54.8912 24.9409 55.8536 25.5126C56.8286 26.0726 57.8974 26.3526 59.0599 26.3526Z" fill="#1E1983"/>
<path d="M71.3684 28.75V11.25H74.5184V13.4375C75.181 12.6209 76.0184 11.9733 77.031 11.495C78.0434 11.005 79.1434 10.76 80.331 10.76C81.056 10.76 81.756 10.8475 82.431 11.0225L81.156 13.9626C80.6434 13.8109 80.1434 13.735 79.656 13.735C78.7184 13.735 77.856 13.9509 77.0684 14.3825C76.2934 14.8025 75.6746 15.3742 75.2122 16.0975C74.7496 16.8209 74.5184 17.6259 74.5184 18.5126V28.75H71.3684Z" fill="#1E1983"/>
<path d="M97.358 11.25H100.508V28.75H97.358L97.2267 25.7926C96.6392 26.8076 95.8267 27.63 94.7892 28.26C93.7642 28.89 92.5392 29.205 91.1142 29.205C89.7392 29.205 88.4517 28.9659 87.2517 28.4875C86.0517 27.9975 84.9892 27.3267 84.0642 26.475C83.1517 25.6117 82.4392 24.62 81.9267 23.5C81.4142 22.38 81.158 21.1725 81.158 19.8775C81.158 18.6292 81.408 17.4509 81.908 16.3425C82.408 15.2342 83.1017 14.2659 83.9892 13.4375C84.8892 12.5975 85.9267 11.9442 87.1017 11.4775C88.2767 10.9992 89.5392 10.76 90.8892 10.76C92.3642 10.76 93.658 11.0867 94.7705 11.74C95.883 12.3817 96.783 13.2159 97.4705 14.2426L97.358 11.25ZM91.058 26.3525C92.2955 26.3525 93.3642 26.0725 94.2642 25.5125C95.1767 24.9409 95.8767 24.1709 96.3642 23.2025C96.8642 22.2342 97.1142 21.1667 97.1142 20C97.1142 18.81 96.8642 17.7367 96.3642 16.78C95.8642 15.8117 95.158 15.0476 94.2455 14.4876C93.3455 13.9159 92.283 13.63 91.058 13.63C89.8205 13.63 88.6955 13.9159 87.683 14.4876C86.6705 15.0592 85.8642 15.8292 85.2642 16.7975C84.6767 17.7542 84.383 18.8217 84.383 20C84.383 21.1783 84.6892 22.2517 85.3017 23.22C85.9142 24.1767 86.7267 24.9409 87.7392 25.5125C88.7517 26.0725 89.858 26.3525 91.058 26.3525Z" fill="#1E1983"/>
<path d="M115.013 11.25H118.351L108.095 37.5H104.757L108.151 28.75L101.42 11.25H104.87L109.726 24.7074L115.013 11.25Z" fill="#1E1983"/>
<path d="M134.283 11.25H137.433V29.31C137.433 30.465 137.164 31.5383 136.627 32.53C136.102 33.5333 135.389 34.4024 134.489 35.1376C133.589 35.8841 132.564 36.4617 131.414 36.87C130.264 37.29 129.064 37.5 127.814 37.5C126.514 37.5 125.258 37.2259 124.046 36.6776C122.833 36.1409 121.771 35.4174 120.858 34.5074C119.958 33.6091 119.308 32.6 118.908 31.48L121.796 30.255C122.033 31.06 122.458 31.7833 123.071 32.425C123.696 33.0783 124.421 33.5917 125.246 33.965C126.083 34.35 126.939 34.5424 127.814 34.5424C128.639 34.5424 129.433 34.4083 130.196 34.14C130.971 33.8717 131.664 33.4983 132.277 33.02C132.902 32.5533 133.389 31.9992 133.739 31.3576C134.102 30.7276 134.283 30.045 134.283 29.31V25.8274C133.646 26.8308 132.802 27.6474 131.752 28.2774C130.714 28.8959 129.502 29.205 128.114 29.205C126.789 29.205 125.546 28.9659 124.383 28.4876C123.221 28.0092 122.202 27.35 121.327 26.51C120.452 25.6583 119.764 24.6783 119.264 23.57C118.764 22.4617 118.514 21.2717 118.514 20C118.514 18.7283 118.764 17.5383 119.264 16.43C119.764 15.31 120.452 14.33 121.327 13.49C122.202 12.6383 123.221 11.9733 124.383 11.495C125.546 11.0167 126.789 10.7775 128.114 10.7775C129.502 10.7775 130.714 11.0867 131.752 11.705C132.802 12.3233 133.646 13.14 134.283 14.155V11.25ZM128.133 26.3526C129.346 26.3526 130.396 26.0609 131.283 25.4776C132.183 24.8942 132.877 24.1183 133.364 23.15C133.852 22.1817 134.096 21.1317 134.096 20C134.096 18.8333 133.846 17.7717 133.346 16.815C132.858 15.8467 132.164 15.0767 131.264 14.505C130.377 13.9217 129.333 13.63 128.133 13.63C126.958 13.63 125.883 13.9159 124.908 14.4876C123.933 15.0592 123.158 15.8292 122.583 16.7976C122.021 17.7542 121.739 18.8217 121.739 20C121.739 21.1783 122.027 22.2517 122.602 23.22C123.189 24.1767 123.964 24.9409 124.927 25.5126C125.902 26.0726 126.971 26.3526 128.133 26.3526Z" fill="#1E1983"/>
<path d="M140.441 28.75V11.25H143.591V13.4375C144.254 12.6209 145.091 11.9733 146.104 11.495C147.117 11.005 148.217 10.76 149.404 10.76C150.129 10.76 150.829 10.8475 151.504 11.0225L150.229 13.9626C149.717 13.8109 149.217 13.735 148.729 13.735C147.791 13.735 146.929 13.9509 146.141 14.3825C145.367 14.8025 144.748 15.3742 144.286 16.0975C143.823 16.8209 143.591 17.6259 143.591 18.5126V28.75H140.441Z" fill="#1E1983"/>
<path d="M152.308 11.25H155.458V28.75H152.308V11.25ZM153.921 8.39749C153.421 8.39749 153.002 8.24583 152.664 7.94249C152.327 7.63916 152.158 7.25999 152.158 6.80499C152.158 6.34999 152.327 5.97083 152.664 5.66749C153.002 5.36416 153.414 5.21249 153.902 5.21249C154.39 5.21249 154.802 5.36416 155.14 5.66749C155.477 5.97083 155.645 6.34999 155.645 6.80499C155.645 7.25999 155.477 7.63916 155.14 7.94249C154.814 8.24583 154.408 8.39749 153.921 8.39749Z" fill="#1E1983"/>
<path d="M173.3 2.5H176.45V28.75H173.3V25.775C172.662 26.8017 171.805 27.63 170.731 28.26C169.655 28.89 168.393 29.205 166.943 29.205C165.581 29.205 164.305 28.9659 163.118 28.4876C161.931 28.0092 160.881 27.35 159.968 26.51C159.068 25.6583 158.362 24.6783 157.85 23.57C157.337 22.4617 157.081 21.2717 157.081 20C157.081 18.7283 157.337 17.5383 157.85 16.43C158.362 15.31 159.068 14.33 159.968 13.49C160.881 12.6383 161.931 11.9733 163.118 11.495C164.305 11.0167 165.581 10.7775 166.943 10.7775C168.393 10.7775 169.655 11.0925 170.731 11.7226C171.805 12.3526 172.662 13.1809 173.3 14.2076V2.5ZM166.981 26.3526C168.218 26.3526 169.287 26.0726 170.187 25.5126C171.1 24.9409 171.8 24.1709 172.287 23.2026C172.787 22.2342 173.037 21.1667 173.037 20C173.037 18.81 172.787 17.7367 172.287 16.78C171.787 15.8117 171.081 15.0476 170.168 14.4876C169.268 13.9159 168.205 13.63 166.981 13.63C165.743 13.63 164.618 13.9159 163.605 14.4876C162.605 15.0592 161.805 15.8292 161.205 16.7976C160.605 17.7542 160.305 18.8217 160.305 20C160.305 21.1783 160.612 22.2517 161.224 23.22C161.837 24.1767 162.65 24.9409 163.662 25.5126C164.674 26.0726 165.781 26.3526 166.981 26.3526Z" fill="#1E1983"/>
<path d="M185.166 29.0824C184.153 29.0474 183.166 28.8726 182.203 28.5574C181.253 28.2309 180.417 27.7933 179.691 27.245C178.979 26.685 178.46 26.0433 178.134 25.32L180.834 24.235C181.022 24.6317 181.36 25.005 181.848 25.355C182.334 25.705 182.898 25.985 183.534 26.195C184.172 26.405 184.816 26.51 185.466 26.51C186.153 26.51 186.798 26.4109 187.398 26.2126C187.998 26.0142 188.484 25.7226 188.86 25.3376C189.248 24.9409 189.441 24.4683 189.441 23.92C189.441 23.3367 189.229 22.8817 188.803 22.555C188.391 22.2167 187.866 21.9541 187.229 21.7674C186.603 21.5692 185.966 21.3824 185.316 21.2076C184.029 20.9041 182.879 20.5426 181.866 20.1226C180.853 19.6909 180.053 19.1483 179.466 18.495C178.891 17.83 178.603 16.9842 178.603 15.9576C178.603 14.8726 178.922 13.9333 179.56 13.14C180.21 12.3467 181.06 11.7342 182.11 11.3026C183.16 10.8708 184.284 10.655 185.484 10.655C186.998 10.655 188.379 10.9583 189.629 11.565C190.879 12.1717 191.81 12.9942 192.422 14.0326L189.891 15.415C189.679 14.995 189.353 14.6276 188.916 14.3126C188.479 13.9859 187.979 13.7292 187.416 13.5426C186.853 13.3559 186.279 13.2567 185.691 13.245C184.966 13.2217 184.284 13.3092 183.648 13.5076C183.022 13.7059 182.517 14.0092 182.129 14.4174C181.753 14.8142 181.566 15.31 181.566 15.905C181.566 16.4883 181.766 16.9317 182.166 17.235C182.579 17.5383 183.11 17.7833 183.76 17.97C184.422 18.145 185.141 18.3492 185.916 18.5826C187.053 18.9209 188.116 19.3117 189.103 19.755C190.091 20.1983 190.884 20.7526 191.484 21.4176C192.098 22.0826 192.398 22.905 192.384 23.885C192.384 24.9583 192.041 25.8976 191.353 26.7026C190.666 27.4959 189.772 28.1024 188.672 28.5224C187.584 28.9426 186.416 29.1291 185.166 29.0824Z" fill="#1E1983"/>
</g>
<defs>
<linearGradient id="paint0_linear_2911_90" x1="21.9412" y1="0" x2="21.9412" y2="40" gradientUnits="userSpaceOnUse">
<stop stop-color="#3558EA"/>
<stop offset="1" stop-color="#0000FF"/>
</linearGradient>
<linearGradient id="paint1_linear_2911_90" x1="27.2626" y1="5.81048" x2="9.64439" y2="58.3054" gradientUnits="userSpaceOnUse">
<stop offset="0.215628" stop-color="#1E1983" stop-opacity="0"/>
<stop offset="0.447191" stop-color="#1E1983" stop-opacity="0.19"/>
<stop offset="0.619792" stop-color="#1E1983"/>
</linearGradient>
<clipPath id="clip0_2911_90">
<rect width="191.111" height="40" fill="white" transform="translate(0.941162)"/>
</clipPath>
</defs>
</svg>
