<svg width="193" height="40" viewBox="0 0 193 40" fill="none" xmlns="http://www.w3.org/2000/svg">
<g clip-path="url(#clip0_3044_105)">
<path d="M41.9414 20C41.9414 8.9543 32.9871 0 21.9414 0C10.8957 0 1.94141 8.9543 1.94141 20C1.94141 31.0457 10.8957 40 21.9414 40C32.9871 40 41.9414 31.0457 41.9414 20Z" fill="url(#paint0_linear_3044_105)"/>
<path d="M41.9414 20C41.9414 8.9543 32.9871 0 21.9414 0C10.8957 0 1.94141 8.9543 1.94141 20C1.94141 31.0457 10.8957 40 21.9414 40C32.9871 40 41.9414 31.0457 41.9414 20Z" fill="url(#paint1_linear_3044_105)" fill-opacity="0.56"/>
<path d="M22.2597 7.5C25.4269 7.5 28.4166 8.67012 30.7303 10.8034C30.8585 10.9217 30.8598 11.1226 30.7365 11.2459L25.8393 16.1431C25.7207 16.2618 25.5302 16.2647 25.4004 16.1583C24.516 15.4342 23.4185 15.041 22.2617 15.041C19.5234 15.0391 17.2968 17.2657 17.2968 20H9.75391C9.75391 13.1074 15.3652 7.5 22.2597 7.5Z" fill="white"/>
<path d="M17.2968 20C17.2968 22.5663 19.2577 24.6846 21.7608 24.936C21.9277 24.9528 22.0605 25.0896 22.0605 25.2573V32.1826C22.0605 32.357 21.9167 32.4981 21.7423 32.491C15.0852 32.2182 9.75391 26.7194 9.75391 20H17.2968Z" fill="white"/>
<path opacity="0.56" d="M29.6915 20.9921H26.7422C26.5696 20.9921 26.4297 21.1321 26.4297 21.3047V24.2519C26.4297 24.4246 26.5696 24.5645 26.7422 24.5645H29.6915C29.864 24.5645 30.0039 24.4246 30.0039 24.2519V21.3047C30.0039 21.1321 29.864 20.9921 29.6915 20.9921Z" fill="white"/>
<path opacity="0.4" d="M33.6596 20.9921H30.7104C30.5378 20.9921 30.3979 21.1321 30.3979 21.3047V24.2519C30.3979 24.4246 30.5378 24.5645 30.7104 24.5645H33.6596C33.8322 24.5645 33.9722 24.4246 33.9722 24.2519V21.3047C33.9722 21.1321 33.8322 20.9921 33.6596 20.9921Z" fill="white"/>
<path opacity="0.72" d="M29.6915 24.9611H26.7422C26.5696 24.9611 26.4297 25.101 26.4297 25.2736V28.2209C26.4297 28.3935 26.5696 28.5333 26.7422 28.5333H29.6915C29.864 28.5333 30.0039 28.3935 30.0039 28.2209V25.2736C30.0039 25.101 29.864 24.9611 29.6915 24.9611Z" fill="white"/>
<path opacity="0.88" d="M25.7211 24.9611H22.7719C22.5994 24.9611 22.4595 25.101 22.4595 25.2736V28.2209C22.4595 28.3935 22.5994 28.5333 22.7719 28.5333H25.7211C25.8938 28.5333 26.0337 28.3935 26.0337 28.2209V25.2736C26.0337 25.101 25.8938 24.9611 25.7211 24.9611Z" fill="white"/>
<path opacity="0.56" d="M33.6596 24.9611H30.7104C30.5378 24.9611 30.3979 25.101 30.3979 25.2736V28.2209C30.3979 28.3935 30.5378 28.5333 30.7104 28.5333H33.6596C33.8322 28.5333 33.9722 28.3935 33.9722 28.2209V25.2736C33.9722 25.101 33.8322 24.9611 33.6596 24.9611Z" fill="white"/>
<path opacity="0.88" d="M29.6915 28.9276H26.7422C26.5696 28.9276 26.4297 29.0674 26.4297 29.24V32.1873C26.4297 32.3599 26.5696 32.4998 26.7422 32.4998H29.6915C29.864 32.4998 30.0039 32.3599 30.0039 32.1873V29.24C30.0039 29.0674 29.864 28.9276 29.6915 28.9276Z" fill="white"/>
<path opacity="0.96" d="M25.7211 28.9276H22.7719C22.5994 28.9276 22.4595 29.0674 22.4595 29.24V32.1873C22.4595 32.3599 22.5994 32.4998 22.7719 32.4998H25.7211C25.8938 32.4998 26.0337 32.3599 26.0337 32.1873V29.24C26.0337 29.0674 25.8938 28.9276 25.7211 28.9276Z" fill="white"/>
<path opacity="0.72" d="M33.6596 28.9276H30.7104C30.5378 28.9276 30.3979 29.0674 30.3979 29.24V32.1873C30.3979 32.3599 30.5378 32.4998 30.7104 32.4998H33.6596C33.8322 32.4998 33.9722 32.3599 33.9722 32.1873V29.24C33.9722 29.0674 33.8322 28.9276 33.6596 28.9276Z" fill="white"/>
<path d="M65.2102 11.25H68.3602V29.31C68.3602 30.465 68.0914 31.5383 67.5539 32.53C67.0289 33.5333 66.3164 34.4024 65.4164 35.1376C64.5164 35.8841 63.4914 36.4617 62.3414 36.87C61.1914 37.29 59.9914 37.5 58.7414 37.5C57.4414 37.5 56.1852 37.2259 54.9726 36.6776C53.7602 36.1409 52.6976 35.4174 51.7852 34.5074C50.8852 33.6091 50.2352 32.6 49.8352 31.48L52.7226 30.255C52.9602 31.06 53.3852 31.7833 53.9976 32.425C54.6226 33.0783 55.3476 33.5917 56.1726 33.965C57.0102 34.35 57.8664 34.5424 58.7414 34.5424C59.5664 34.5424 60.3602 34.4083 61.1226 34.14C61.8976 33.8717 62.5914 33.4983 63.2038 33.02C63.8288 32.5533 64.3164 31.9992 64.6664 31.3576C65.0288 30.7276 65.2102 30.045 65.2102 29.31V25.8274C64.5726 26.8308 63.7288 27.6474 62.6789 28.2774C61.6414 28.8959 60.4288 29.205 59.0414 29.205C57.7164 29.205 56.4726 28.9659 55.3102 28.4876C54.1476 28.0092 53.1289 27.35 52.2539 26.51C51.3789 25.6583 50.6914 24.6783 50.1914 23.57C49.6914 22.4617 49.4414 21.2717 49.4414 20C49.4414 18.7283 49.6914 17.5383 50.1914 16.43C50.6914 15.31 51.3789 14.33 52.2539 13.49C53.1289 12.6383 54.1476 11.9733 55.3102 11.495C56.4726 11.0167 57.7164 10.7775 59.0414 10.7775C60.4288 10.7775 61.6414 11.0867 62.6789 11.705C63.7288 12.3233 64.5726 13.14 65.2102 14.155V11.25ZM59.0602 26.3526C60.2726 26.3526 61.3226 26.0609 62.2102 25.4776C63.1102 24.8942 63.8039 24.1183 64.2914 23.15C64.7789 22.1817 65.0226 21.1317 65.0226 20C65.0226 18.8333 64.7726 17.7717 64.2726 16.815C63.7852 15.8467 63.0914 15.0767 62.1914 14.505C61.3038 13.9217 60.2602 13.63 59.0602 13.63C57.8852 13.63 56.8102 13.9159 55.8352 14.4876C54.8602 15.0592 54.0852 15.8292 53.5102 16.7976C52.9476 17.7542 52.6664 18.8217 52.6664 20C52.6664 21.1783 52.9538 22.2517 53.529 23.22C54.1164 24.1767 54.8914 24.9409 55.8538 25.5126C56.8288 26.0726 57.8976 26.3526 59.0602 26.3526Z" fill="white"/>
<path d="M71.3687 28.75V11.25H74.5187V13.4376C75.1812 12.6209 76.0187 11.9733 77.0312 11.495C78.0437 11.005 79.1436 10.76 80.3312 10.76C81.0562 10.76 81.7562 10.8475 82.4312 11.0225L81.1562 13.9626C80.6436 13.8109 80.1436 13.735 79.6562 13.735C78.7186 13.735 77.8562 13.9509 77.0687 14.3826C76.2937 14.8026 75.6749 15.3742 75.2124 16.0976C74.7499 16.8209 74.5187 17.6259 74.5187 18.5126V28.75H71.3687Z" fill="white"/>
<path d="M97.3582 11.25H100.508V28.75H97.3582L97.227 25.7926C96.6394 26.8076 95.827 27.63 94.7894 28.26C93.7644 28.89 92.5394 29.205 91.1144 29.205C89.7394 29.205 88.452 28.9659 87.252 28.4876C86.052 27.9976 84.9894 27.3267 84.0644 26.475C83.152 25.6117 82.4394 24.62 81.927 23.5C81.4144 22.38 81.1582 21.1726 81.1582 19.8776C81.1582 18.6292 81.4082 17.4509 81.9082 16.3426C82.4082 15.2342 83.102 14.2659 83.9894 13.4376C84.8894 12.5976 85.927 11.9442 87.102 11.4776C88.277 10.9992 89.5394 10.76 90.8894 10.76C92.3644 10.76 93.6582 11.0867 94.7708 11.74C95.8832 12.3817 96.7832 13.2159 97.4708 14.2426L97.3582 11.25ZM91.0582 26.3526C92.2958 26.3526 93.3644 26.0726 94.2644 25.5126C95.177 24.9409 95.877 24.1709 96.3644 23.2026C96.8644 22.2342 97.1144 21.1667 97.1144 20C97.1144 18.81 96.8644 17.7367 96.3644 16.78C95.8644 15.8117 95.1582 15.0476 94.2458 14.4876C93.3458 13.9159 92.2832 13.63 91.0582 13.63C89.8208 13.63 88.6958 13.9159 87.6832 14.4876C86.6708 15.0592 85.8644 15.8292 85.2644 16.7976C84.677 17.7542 84.3832 18.8217 84.3832 20C84.3832 21.1783 84.6894 22.2517 85.302 23.22C85.9144 24.1767 86.727 24.9409 87.7394 25.5126C88.752 26.0726 89.8582 26.3526 91.0582 26.3526Z" fill="white"/>
<path d="M115.014 11.25H118.351L108.095 37.5H104.757L108.151 28.75L101.42 11.25H104.87L109.726 24.7074L115.014 11.25Z" fill="white"/>
<path d="M134.284 11.25H137.434V29.31C137.434 30.465 137.165 31.5383 136.627 32.53C136.102 33.5333 135.389 34.4024 134.489 35.1376C133.589 35.8841 132.565 36.4617 131.415 36.87C130.265 37.29 129.065 37.5 127.815 37.5C126.515 37.5 125.258 37.2259 124.046 36.6776C122.834 36.1409 121.771 35.4174 120.858 34.5074C119.958 33.6091 119.308 32.6 118.908 31.48L121.796 30.255C122.034 31.06 122.458 31.7833 123.071 32.425C123.696 33.0783 124.421 33.5917 125.246 33.965C126.084 34.35 126.939 34.5424 127.815 34.5424C128.639 34.5424 129.434 34.4083 130.196 34.14C130.971 33.8717 131.665 33.4983 132.277 33.02C132.902 32.5533 133.389 31.9992 133.739 31.3576C134.102 30.7276 134.284 30.045 134.284 29.31V25.8274C133.646 26.8308 132.802 27.6474 131.752 28.2774C130.715 28.8959 129.502 29.205 128.115 29.205C126.789 29.205 125.546 28.9659 124.384 28.4876C123.221 28.0092 122.202 27.35 121.327 26.51C120.452 25.6583 119.765 24.6783 119.265 23.57C118.765 22.4617 118.515 21.2717 118.515 20C118.515 18.7283 118.765 17.5383 119.265 16.43C119.765 15.31 120.452 14.33 121.327 13.49C122.202 12.6383 123.221 11.9733 124.384 11.495C125.546 11.0167 126.789 10.7775 128.115 10.7775C129.502 10.7775 130.715 11.0867 131.752 11.705C132.802 12.3233 133.646 13.14 134.284 14.155V11.25ZM128.134 26.3526C129.346 26.3526 130.396 26.0609 131.284 25.4776C132.184 24.8942 132.877 24.1183 133.365 23.15C133.852 22.1817 134.096 21.1317 134.096 20C134.096 18.8333 133.846 17.7717 133.346 16.815C132.858 15.8467 132.165 15.0767 131.265 14.505C130.377 13.9217 129.334 13.63 128.134 13.63C126.958 13.63 125.884 13.9159 124.908 14.4876C123.934 15.0592 123.158 15.8292 122.584 16.7976C122.021 17.7542 121.739 18.8217 121.739 20C121.739 21.1783 122.027 22.2517 122.602 23.22C123.189 24.1767 123.965 24.9409 124.927 25.5126C125.902 26.0726 126.971 26.3526 128.134 26.3526Z" fill="white"/>
<path d="M140.441 28.75V11.25H143.591V13.4376C144.255 12.6209 145.091 11.9733 146.105 11.495C147.117 11.005 148.217 10.76 149.405 10.76C150.129 10.76 150.829 10.8475 151.505 11.0225L150.229 13.9626C149.717 13.8109 149.217 13.735 148.729 13.735C147.791 13.735 146.929 13.9509 146.141 14.3826C145.367 14.8026 144.748 15.3742 144.286 16.0976C143.824 16.8209 143.591 17.6259 143.591 18.5126V28.75H140.441Z" fill="white"/>
<path d="M152.308 11.25H155.458V28.75H152.308V11.25ZM153.922 8.39749C153.422 8.39749 153.003 8.24583 152.665 7.94249C152.327 7.63916 152.158 7.25999 152.158 6.80499C152.158 6.34999 152.327 5.97083 152.665 5.66749C153.003 5.36416 153.415 5.21249 153.903 5.21249C154.39 5.21249 154.803 5.36416 155.14 5.66749C155.477 5.97083 155.646 6.34999 155.646 6.80499C155.646 7.25999 155.477 7.63916 155.14 7.94249C154.815 8.24583 154.408 8.39749 153.922 8.39749Z" fill="white"/>
<path d="M173.3 2.5H176.45V28.75H173.3V25.775C172.662 26.8017 171.805 27.63 170.731 28.26C169.655 28.89 168.393 29.205 166.943 29.205C165.581 29.205 164.305 28.9659 163.118 28.4876C161.931 28.0092 160.881 27.35 159.968 26.51C159.068 25.6583 158.362 24.6783 157.85 23.57C157.337 22.4617 157.081 21.2717 157.081 20C157.081 18.7283 157.337 17.5383 157.85 16.43C158.362 15.31 159.068 14.33 159.968 13.49C160.881 12.6383 161.931 11.9733 163.118 11.495C164.305 11.0167 165.581 10.7775 166.943 10.7775C168.393 10.7775 169.655 11.0925 170.731 11.7226C171.805 12.3526 172.662 13.1809 173.3 14.2076V2.5ZM166.981 26.3526C168.218 26.3526 169.287 26.0726 170.187 25.5126C171.1 24.9409 171.8 24.1709 172.287 23.2026C172.787 22.2342 173.037 21.1667 173.037 20C173.037 18.81 172.787 17.7367 172.287 16.78C171.787 15.8117 171.081 15.0476 170.168 14.4876C169.268 13.9159 168.205 13.63 166.981 13.63C165.743 13.63 164.618 13.9159 163.605 14.4876C162.605 15.0592 161.805 15.8292 161.205 16.7976C160.605 17.7542 160.305 18.8217 160.305 20C160.305 21.1783 160.612 22.2517 161.224 23.22C161.837 24.1767 162.65 24.9409 163.662 25.5126C164.674 26.0726 165.781 26.3526 166.981 26.3526Z" fill="white"/>
<path d="M185.167 29.0824C184.154 29.0474 183.167 28.8726 182.204 28.5574C181.254 28.2309 180.417 27.7933 179.691 27.245C178.979 26.685 178.46 26.0433 178.135 25.32L180.835 24.235C181.023 24.6317 181.36 25.005 181.848 25.355C182.335 25.705 182.898 25.985 183.535 26.195C184.173 26.405 184.817 26.51 185.467 26.51C186.154 26.51 186.798 26.4109 187.398 26.2126C187.998 26.0142 188.485 25.7226 188.86 25.3376C189.248 24.9409 189.441 24.4683 189.441 23.92C189.441 23.3367 189.229 22.8817 188.804 22.555C188.391 22.2167 187.867 21.9541 187.229 21.7674C186.604 21.5692 185.967 21.3824 185.317 21.2076C184.029 20.9041 182.879 20.5426 181.867 20.1226C180.854 19.6909 180.054 19.1483 179.467 18.495C178.891 17.83 178.604 16.9842 178.604 15.9576C178.604 14.8726 178.923 13.9333 179.56 13.14C180.21 12.3467 181.06 11.7342 182.11 11.3026C183.16 10.8708 184.285 10.655 185.485 10.655C186.998 10.655 188.379 10.9583 189.629 11.565C190.879 12.1717 191.81 12.9942 192.423 14.0326L189.891 15.415C189.679 14.995 189.354 14.6276 188.917 14.3126C188.479 13.9859 187.979 13.7292 187.417 13.5426C186.854 13.3559 186.279 13.2567 185.691 13.245C184.967 13.2217 184.285 13.3092 183.648 13.5076C183.023 13.7059 182.517 14.0092 182.129 14.4174C181.754 14.8142 181.567 15.31 181.567 15.905C181.567 16.4883 181.767 16.9317 182.167 17.235C182.579 17.5383 183.11 17.7833 183.76 17.97C184.423 18.145 185.141 18.3492 185.917 18.5826C187.054 18.9209 188.117 19.3117 189.104 19.755C190.091 20.1983 190.885 20.7526 191.485 21.4176C192.098 22.0826 192.398 22.905 192.385 23.885C192.385 24.9583 192.041 25.8976 191.354 26.7026C190.667 27.4959 189.773 28.1024 188.673 28.5224C187.585 28.9426 186.417 29.1291 185.167 29.0824Z" fill="white"/>
</g>
<defs>
<linearGradient id="paint0_linear_3044_105" x1="21.9414" y1="0" x2="21.9414" y2="40" gradientUnits="userSpaceOnUse">
<stop stop-color="#3558EA"/>
<stop offset="1" stop-color="#0000FF"/>
</linearGradient>
<linearGradient id="paint1_linear_3044_105" x1="27.2628" y1="5.81048" x2="9.64464" y2="58.3054" gradientUnits="userSpaceOnUse">
<stop offset="0.215628" stop-color="#1E1983" stop-opacity="0"/>
<stop offset="0.447191" stop-color="#1E1983" stop-opacity="0.19"/>
<stop offset="0.619792" stop-color="#1E1983"/>
</linearGradient>
<clipPath id="clip0_3044_105">
<rect width="191.111" height="40" fill="white" transform="translate(0.941406)"/>
</clipPath>
</defs>
</svg>
