<svg width="246" height="40" viewBox="0 0 246 40" fill="none" xmlns="http://www.w3.org/2000/svg">
<g clip-path="url(#clip0_3044_52)">
<path d="M58.6868 3.07385H52.8853V36.1935H72.5596V30.8499H58.6868V3.07385Z" fill="white"/>
<path d="M79.2159 9.32322C81.0276 9.32322 82.5238 7.82704 82.5238 5.96444C82.5238 4.10185 81.0276 2.66673 79.2159 2.66673C77.3126 2.66673 75.8164 4.1222 75.8164 5.97462C75.8164 7.82704 77.3228 9.32322 79.2159 9.32322ZM76.4678 36.1935H81.9945V13.8016H76.4678V36.1935Z" fill="white"/>
<path d="M93.2313 36.1934V24.1425C93.2313 20.5191 95.3076 18.1578 98.7173 18.1578C101.577 18.1578 103.43 19.9695 103.43 23.7354V36.2036H108.957V22.4123C108.957 16.6107 106.056 13.1298 100.437 13.1298C97.4043 13.1298 94.6868 14.4428 93.2822 16.7125L92.8242 13.8118H87.7046V36.2036H93.2313V36.1934Z" fill="white"/>
<path d="M124.407 36.7838C130.249 36.7838 134.33 33.8423 135.277 28.9365H130.157C129.516 31.0637 127.531 32.2443 124.488 32.2443C120.814 32.2443 118.738 30.2494 118.33 26.3105L135.185 26.2596V24.5904C135.185 17.6082 130.921 13.1197 124.213 13.1197C117.649 13.1197 113.068 17.9644 113.068 24.9975C113.068 31.9288 117.74 36.7838 124.407 36.7838ZM124.264 17.6591C127.572 17.6591 129.699 19.6947 129.699 22.7787H118.463C119.002 19.4301 120.997 17.6591 124.264 17.6591Z" fill="white"/>
<path d="M142.371 9.32322C144.183 9.32322 145.679 7.82704 145.679 5.96444C145.679 4.10185 144.183 2.66673 142.371 2.66673C140.468 2.66673 138.982 4.1222 138.982 5.97462C138.982 7.82704 140.458 9.32322 142.371 9.32322ZM139.603 36.1935H145.13V13.8016H139.603V36.1935Z" fill="white"/>
<path d="M149.537 24.9568C149.537 32.0713 153.974 36.7838 160.773 36.7838C166.616 36.7838 170.972 33.2011 171.643 27.9899H166.066C165.476 30.4428 163.532 31.7965 160.763 31.7965C157.231 31.7965 155.053 29.1705 155.053 24.9568C155.053 20.7431 157.414 18.0662 160.946 18.0662C163.572 18.0662 165.435 19.3792 166.066 21.9237H171.593C171.002 16.5293 166.829 13.1298 160.722 13.1298C154.117 13.1298 149.537 18.0255 149.537 24.9568Z" fill="white"/>
<path d="M174.442 24.9568C174.442 31.939 179.47 36.7431 186.412 36.7431C193.343 36.7431 198.381 31.9492 198.381 24.9568C198.381 17.9746 193.353 13.1705 186.412 13.1705C179.481 13.1807 174.442 17.9746 174.442 24.9568ZM179.979 24.9568C179.979 20.8754 182.605 18.1171 186.412 18.1171C190.218 18.1171 192.844 20.8855 192.844 24.9568C192.844 29.028 190.218 31.7965 186.412 31.7965C182.605 31.8067 179.979 29.0382 179.979 24.9568Z" fill="white"/>
<path d="M208.275 36.1934V24.1425C208.275 20.5191 210.351 18.1578 213.761 18.1578C216.621 18.1578 218.473 19.9695 218.473 23.7354V36.2036H224V22.4123C224 16.6107 221.099 13.1298 215.481 13.1298C212.448 13.1298 209.73 14.4428 208.326 16.7125L207.868 13.8118H202.748V36.2036H208.275V36.1934Z" fill="white"/>
<path d="M245.934 29.4453C245.934 33.9746 242.086 36.7939 236.56 36.7939C230.982 36.7939 227.46 33.7914 227.45 29.4148H232.692C232.733 31.3588 234.188 32.5904 236.722 32.5904C239.298 32.5904 240.712 31.542 240.712 29.9135C240.712 28.7736 240.132 27.9695 238.137 27.5115L234.097 26.5548C230.066 25.6489 228.122 23.7456 228.122 20.1629C228.122 15.766 231.827 13.1298 236.997 13.1298C242.025 13.1298 245.415 16.0408 245.465 20.3868H240.214C240.183 18.4835 238.901 17.2621 236.773 17.2621C234.605 17.2621 233.333 18.2596 233.333 19.9288C233.333 21.2011 234.341 22.0051 236.234 22.4632L240.275 23.4199C243.745 24.2036 245.649 25.7507 245.903 28.6922L245.934 29.4453Z" fill="white"/>
<path d="M31.6232 35.2699C33.0787 33.8145 33.0787 31.4633 31.6232 30.0078L6.35097 4.73557C4.8955 3.2801 2.54435 3.2801 1.08888 4.73557C-0.366588 6.19104 -0.366588 8.54219 1.08888 9.99766L26.3612 35.2699C27.8166 36.7254 30.1678 36.7254 31.6232 35.2699Z" fill="#6566FF"/>
<path d="M30.9514 16.6134C32.4068 15.1579 32.4068 12.8067 30.9514 11.3513L20.6918 1.09173C19.2364 -0.363746 16.8852 -0.363746 15.4297 1.09173C13.9743 2.5472 13.9743 4.89834 15.4297 6.35381L25.6893 16.6134C27.1447 18.0587 29.4959 18.0587 30.9514 16.6134Z" fill="#6566FF"/>
<path d="M17.2824 38.9138C18.7379 37.4583 18.7379 35.1072 17.2824 33.6517L7.02288 23.3921C5.56741 21.9367 3.21626 21.9367 1.76079 23.3921C0.30532 24.8476 0.30532 27.1988 1.76079 28.6542L12.0203 38.9138C13.4758 40.3692 15.8269 40.3692 17.2824 38.9138Z" fill="#6566FF"/>
</g>
<defs>
<clipPath id="clip0_3044_52">
<rect width="245.934" height="40" fill="white"/>
</clipPath>
</defs>
</svg>
