<svg width="221" height="40" viewBox="0 0 221 40" fill="none" xmlns="http://www.w3.org/2000/svg">
<g clip-path="url(#clip0_3044_71)">
<path d="M55.3926 11.4699H63.2392V33.9465H67.9326V11.4699H75.7792V7.14325H55.3926V11.4699Z" fill="white"/>
<path d="M81.0176 34.4233C83.8408 34.4233 86.2975 33.1399 87.0675 31.2699L87.3975 33.9465H91.3208V22.9465C91.3208 17.9233 88.3142 15.2833 83.4375 15.2833C78.5242 15.2833 75.2976 17.8499 75.2976 21.7733H79.1108C79.1108 19.8666 80.5776 18.7666 83.2176 18.7666C85.4908 18.7666 86.9575 19.7566 86.9575 22.2133V22.6165L81.5308 23.0199C77.2408 23.3499 74.8208 25.4399 74.8208 28.7766C74.8208 32.1865 77.1676 34.4233 81.0176 34.4233ZM82.4842 31.0499C80.4676 31.0499 79.3676 30.2433 79.3676 28.5933C79.3676 27.1265 80.4308 26.2099 83.2176 25.9533L86.9942 25.6599V26.6133C86.9942 29.3999 85.2342 31.0499 82.4842 31.0499Z" fill="white"/>
<path d="M97.9521 12.2032C99.4189 12.2032 100.629 10.9932 100.629 9.48989C100.629 7.98656 99.4189 6.81323 97.9521 6.81323C96.4121 6.81323 95.2021 7.98656 95.2021 9.48989C95.2021 10.9932 96.4121 12.2032 97.9521 12.2032ZM95.7155 33.9465H100.189V15.8332H95.7155V33.9465Z" fill="white"/>
<path d="M109.32 33.9465V6.66656H104.884V33.9465H109.32Z" fill="white"/>
<path d="M116.983 33.9465L119.146 27.7499H129.157L131.32 33.9465H136.27L126.59 7.14325H121.786L112.106 33.9465H116.983ZM123.583 15.1366C123.84 14.4033 124.06 13.5966 124.17 13.0833C124.243 13.6333 124.5 14.4399 124.72 15.1366L127.8 23.7899H120.54L123.583 15.1366Z" fill="white"/>
<path d="M145.59 34.4233C148.34 34.4233 150.688 33.2133 151.788 31.1233L152.08 33.9465H156.188V6.66656H151.75V18.1433C150.614 16.3466 148.378 15.2833 145.848 15.2833C140.384 15.2833 137.084 19.3166 137.084 24.9633C137.084 30.5733 140.348 34.4233 145.59 34.4233ZM146.58 30.3165C143.464 30.3165 141.558 28.0433 141.558 24.8166C141.558 21.5899 143.464 19.2799 146.58 19.2799C149.698 19.2799 151.714 21.5533 151.714 24.8166C151.714 28.0799 149.698 30.3165 146.58 30.3165Z" fill="white"/>
<path d="M165.322 33.9465V23.6799C165.322 20.7466 167.045 19.3533 169.172 19.3533C171.299 19.3533 172.655 20.7099 172.655 23.2399V33.9465H177.129V23.6799C177.129 20.7099 178.779 19.3166 180.942 19.3166C183.069 19.3166 184.462 20.6733 184.462 23.2766V33.9465H188.899V22.1033C188.899 17.9233 186.479 15.2833 182.079 15.2833C179.329 15.2833 177.202 16.6399 176.285 18.7299C175.332 16.6399 173.425 15.2833 170.675 15.2833C168.072 15.2833 166.239 16.4566 165.322 17.9599L164.955 15.8333H160.849V33.9465H165.322Z" fill="white"/>
<path d="M195.526 12.2032C196.994 12.2032 198.204 10.9932 198.204 9.48989C198.204 7.98656 196.994 6.81323 195.526 6.81323C193.986 6.81323 192.776 7.98656 192.776 9.48989C192.776 10.9932 193.986 12.2032 195.526 12.2032ZM193.29 33.9465H197.764V15.8332H193.29V33.9465Z" fill="white"/>
<path d="M206.859 33.9465V24.1933C206.859 21.2599 208.545 19.3533 211.295 19.3533C213.605 19.3533 215.109 20.8199 215.109 23.8633V33.9465H219.582V22.7999C219.582 18.1066 217.235 15.2833 212.689 15.2833C210.232 15.2833 208.032 16.3466 206.895 18.1799L206.529 15.8333H202.385V33.9465H206.859Z" fill="white"/>
<path d="M0.392578 10.5263C0.392578 4.71279 5.10537 0 10.9189 0H29.8662C35.6798 0 40.3926 4.71279 40.3926 10.5263V29.4736C40.3926 35.2872 35.6798 40 29.8662 40H10.9189C5.10537 40 0.392578 35.2872 0.392578 29.4736V10.5263Z" fill="#3C50E0"/>
<g filter="url(#filter0_d_3044_71)">
<path d="M10.9189 10.5266C10.9189 9.36389 11.8615 8.42133 13.0242 8.42133C14.187 8.42133 15.1295 9.36389 15.1295 10.5266V29.474C15.1295 30.6366 14.187 31.5792 13.0242 31.5792C11.8615 31.5792 10.9189 30.6366 10.9189 29.474V10.5266Z" fill="white"/>
</g>
<g opacity="0.9" filter="url(#filter1_d_3044_71)">
<path d="M18.8135 18.947C18.8135 17.7843 19.7561 16.8418 20.9187 16.8418C22.0815 16.8418 23.024 17.7843 23.024 18.947V29.4733C23.024 30.636 22.0815 31.5786 20.9187 31.5786C19.7561 31.5786 18.8135 30.636 18.8135 29.4733V18.947Z" fill="white"/>
</g>
<g opacity="0.7" filter="url(#filter2_d_3044_71)">
<path d="M26.708 13.6836C26.708 12.5209 27.6506 11.5784 28.8134 11.5784C29.976 11.5784 30.9186 12.5209 30.9186 13.6836V29.4731C30.9186 30.6357 29.976 31.5784 28.8134 31.5784C27.6506 31.5784 26.708 30.6357 26.708 29.4731V13.6836Z" fill="white"/>
</g>
</g>
<defs>
<filter id="filter0_d_3044_71" x="9.91895" y="7.92133" width="6.21045" height="25.1579" filterUnits="userSpaceOnUse" color-interpolation-filters="sRGB">
<feFlood flood-opacity="0" result="BackgroundImageFix"/>
<feColorMatrix in="SourceAlpha" type="matrix" values="0 0 0 0 0 0 0 0 0 0 0 0 0 0 0 0 0 0 127 0" result="hardAlpha"/>
<feOffset dy="0.5"/>
<feGaussianBlur stdDeviation="0.5"/>
<feComposite in2="hardAlpha" operator="out"/>
<feColorMatrix type="matrix" values="0 0 0 0 0 0 0 0 0 0 0 0 0 0 0 0 0 0 0.12 0"/>
<feBlend mode="normal" in2="BackgroundImageFix" result="effect1_dropShadow_3044_71"/>
<feBlend mode="normal" in="SourceGraphic" in2="effect1_dropShadow_3044_71" result="shape"/>
</filter>
<filter id="filter1_d_3044_71" x="17.8135" y="16.3418" width="6.21045" height="16.7369" filterUnits="userSpaceOnUse" color-interpolation-filters="sRGB">
<feFlood flood-opacity="0" result="BackgroundImageFix"/>
<feColorMatrix in="SourceAlpha" type="matrix" values="0 0 0 0 0 0 0 0 0 0 0 0 0 0 0 0 0 0 127 0" result="hardAlpha"/>
<feOffset dy="0.5"/>
<feGaussianBlur stdDeviation="0.5"/>
<feComposite in2="hardAlpha" operator="out"/>
<feColorMatrix type="matrix" values="0 0 0 0 0 0 0 0 0 0 0 0 0 0 0 0 0 0 0.12 0"/>
<feBlend mode="normal" in2="BackgroundImageFix" result="effect1_dropShadow_3044_71"/>
<feBlend mode="normal" in="SourceGraphic" in2="effect1_dropShadow_3044_71" result="shape"/>
</filter>
<filter id="filter2_d_3044_71" x="25.708" y="11.0784" width="6.21045" height="22" filterUnits="userSpaceOnUse" color-interpolation-filters="sRGB">
<feFlood flood-opacity="0" result="BackgroundImageFix"/>
<feColorMatrix in="SourceAlpha" type="matrix" values="0 0 0 0 0 0 0 0 0 0 0 0 0 0 0 0 0 0 127 0" result="hardAlpha"/>
<feOffset dy="0.5"/>
<feGaussianBlur stdDeviation="0.5"/>
<feComposite in2="hardAlpha" operator="out"/>
<feColorMatrix type="matrix" values="0 0 0 0 0 0 0 0 0 0 0 0 0 0 0 0 0 0 0.12 0"/>
<feBlend mode="normal" in2="BackgroundImageFix" result="effect1_dropShadow_3044_71"/>
<feBlend mode="normal" in="SourceGraphic" in2="effect1_dropShadow_3044_71" result="shape"/>
</filter>
<clipPath id="clip0_3044_71">
<rect width="220" height="40" fill="white" transform="translate(0.392578)"/>
</clipPath>
</defs>
</svg>
